<mxfile host="app.diagrams.net" modified="2022-01-24T14:36:06.324Z" agent="5.0 (Windows NT 10.0; Win64; x64) AppleWebKit/537.36 (KHTML, like Gecko) Chrome/97.0.4692.99 Safari/537.36" etag="3X7S3DGCV4Pogi3DNym5" version="16.4.5" type="github">
  <diagram id="2xvdcaAI2u6qGRwVfC7a" name="DB S">
    <mxGraphModel dx="1863" dy="726" grid="1" gridSize="10" guides="1" tooltips="1" connect="1" arrows="1" fold="1" page="1" pageScale="1" pageWidth="850" pageHeight="1100" background="#F1FAEE" math="0" shadow="0">
      <root>
        <mxCell id="0" />
        <mxCell id="1" parent="0" />
        <mxCell id="5xwT4UVQatDe8eMr6S1B-1" value="Account" style="rounded=1;whiteSpace=wrap;html=1;fillColor=#A8DADC;strokeColor=#457B9D;fontColor=#1D3557;sketch=1;" parent="1" vertex="1">
          <mxGeometry x="70" y="450" width="120" height="60" as="geometry" />
        </mxCell>
        <mxCell id="5xwT4UVQatDe8eMr6S1B-27" style="edgeStyle=orthogonalEdgeStyle;rounded=1;orthogonalLoop=1;jettySize=auto;html=1;entryX=0.417;entryY=0;entryDx=0;entryDy=0;entryPerimeter=0;labelBackgroundColor=#F1FAEE;strokeColor=#457B9D;fontColor=#1D3557;sketch=1;curved=1;" parent="1" target="5xwT4UVQatDe8eMr6S1B-1" edge="1">
          <mxGeometry relative="1" as="geometry">
            <mxPoint x="325" y="320.04761904761904" as="sourcePoint" />
          </mxGeometry>
        </mxCell>
        <mxCell id="5xwT4UVQatDe8eMr6S1B-17" style="edgeStyle=orthogonalEdgeStyle;rounded=1;orthogonalLoop=1;jettySize=auto;html=1;entryX=0.563;entryY=1.043;entryDx=0;entryDy=0;entryPerimeter=0;labelBackgroundColor=#F1FAEE;strokeColor=#457B9D;fontColor=#1D3557;sketch=1;curved=1;" parent="1" target="5xwT4UVQatDe8eMr6S1B-5" edge="1">
          <mxGeometry relative="1" as="geometry">
            <mxPoint x="445" y="640.047619047619" as="sourcePoint" />
          </mxGeometry>
        </mxCell>
        <mxCell id="5xwT4UVQatDe8eMr6S1B-23" style="edgeStyle=orthogonalEdgeStyle;rounded=1;orthogonalLoop=1;jettySize=auto;html=1;entryX=0.44;entryY=1.043;entryDx=0;entryDy=0;entryPerimeter=0;labelBackgroundColor=#F1FAEE;strokeColor=#457B9D;fontColor=#1D3557;sketch=1;curved=1;" parent="1" target="5xwT4UVQatDe8eMr6S1B-1" edge="1">
          <mxGeometry relative="1" as="geometry">
            <mxPoint x="325" y="640.047619047619" as="sourcePoint" />
          </mxGeometry>
        </mxCell>
        <mxCell id="5xwT4UVQatDe8eMr6S1B-5" value="Person" style="rounded=1;whiteSpace=wrap;html=1;fillColor=#A8DADC;strokeColor=#457B9D;fontColor=#1D3557;sketch=1;" parent="1" vertex="1">
          <mxGeometry x="660" y="450" width="120" height="60" as="geometry" />
        </mxCell>
        <mxCell id="5xwT4UVQatDe8eMr6S1B-19" value="One -To -One&lt;br&gt;Must Have a Person Object" style="text;html=1;align=center;verticalAlign=middle;resizable=0;points=[];autosize=1;strokeColor=none;fillColor=none;labelBackgroundColor=#F1FAEE;fontColor=#1D3557;rounded=1;sketch=1;" parent="1" vertex="1">
          <mxGeometry x="500" y="315" width="160" height="30" as="geometry" />
        </mxCell>
        <mxCell id="5xwT4UVQatDe8eMr6S1B-20" value="One -To -One&lt;br&gt;Must have a Person Object" style="text;html=1;align=center;verticalAlign=middle;resizable=0;points=[];autosize=1;strokeColor=none;fillColor=none;labelBackgroundColor=#F1FAEE;fontColor=#1D3557;rounded=1;sketch=1;" parent="1" vertex="1">
          <mxGeometry x="490" y="610" width="160" height="30" as="geometry" />
        </mxCell>
        <mxCell id="5xwT4UVQatDe8eMr6S1B-24" value="One - To One&lt;br&gt;Always have a account ." style="text;html=1;align=center;verticalAlign=middle;resizable=0;points=[];autosize=1;strokeColor=none;fillColor=none;fontColor=#1D3557;rounded=1;sketch=1;" parent="1" vertex="1">
          <mxGeometry x="120" y="640" width="150" height="30" as="geometry" />
        </mxCell>
        <mxCell id="5xwT4UVQatDe8eMr6S1B-26" value="" style="shape=actor;whiteSpace=wrap;html=1;labelBorderColor=default;fillColor=#A8DADC;strokeColor=#457B9D;fontColor=#1D3557;rounded=1;sketch=1;" parent="1" vertex="1">
          <mxGeometry x="85" y="460" width="15" height="20" as="geometry" />
        </mxCell>
        <mxCell id="5xwT4UVQatDe8eMr6S1B-28" value="One-To-One&lt;br&gt;Account Can or Cannot Exists&amp;nbsp;" style="text;html=1;align=center;verticalAlign=middle;resizable=0;points=[];autosize=1;strokeColor=none;fillColor=none;fontColor=#1D3557;rounded=1;sketch=1;" parent="1" vertex="1">
          <mxGeometry x="105" y="290" width="180" height="30" as="geometry" />
        </mxCell>
        <mxCell id="5xwT4UVQatDe8eMr6S1B-31" value="Employee" style="swimlane;fontStyle=0;childLayout=stackLayout;horizontal=1;startSize=30;horizontalStack=0;resizeParent=1;resizeParentMax=0;resizeLast=0;collapsible=1;marginBottom=0;labelBorderColor=default;fontColor=#1D3557;fillColor=#A8DADC;strokeColor=#457B9D;rounded=1;sketch=1;" parent="1" vertex="1">
          <mxGeometry x="325" y="270" width="140" height="120" as="geometry" />
        </mxCell>
        <mxCell id="5xwT4UVQatDe8eMr6S1B-32" value="Account Exists ? Bool" style="text;strokeColor=none;fillColor=none;align=left;verticalAlign=middle;spacingLeft=4;spacingRight=4;overflow=hidden;points=[[0,0.5],[1,0.5]];portConstraint=eastwest;rotatable=0;labelBorderColor=default;fontColor=#1D3557;rounded=1;sketch=1;" parent="5xwT4UVQatDe8eMr6S1B-31" vertex="1">
          <mxGeometry y="30" width="140" height="30" as="geometry" />
        </mxCell>
        <mxCell id="5xwT4UVQatDe8eMr6S1B-33" value="Active/Inactive ?" style="text;strokeColor=none;fillColor=none;align=left;verticalAlign=middle;spacingLeft=4;spacingRight=4;overflow=hidden;points=[[0,0.5],[1,0.5]];portConstraint=eastwest;rotatable=0;labelBorderColor=default;fontColor=#1D3557;rounded=1;sketch=1;" parent="5xwT4UVQatDe8eMr6S1B-31" vertex="1">
          <mxGeometry y="60" width="140" height="30" as="geometry" />
        </mxCell>
        <mxCell id="5xwT4UVQatDe8eMr6S1B-34" value="Invite Sent /Not Sent ?" style="text;strokeColor=none;fillColor=none;align=left;verticalAlign=middle;spacingLeft=4;spacingRight=4;overflow=hidden;points=[[0,0.5],[1,0.5]];portConstraint=eastwest;rotatable=0;labelBorderColor=default;fontColor=#1D3557;rounded=1;sketch=1;" parent="5xwT4UVQatDe8eMr6S1B-31" vertex="1">
          <mxGeometry y="90" width="140" height="30" as="geometry" />
        </mxCell>
        <mxCell id="5xwT4UVQatDe8eMr6S1B-35" style="edgeStyle=orthogonalEdgeStyle;rounded=1;orthogonalLoop=1;jettySize=auto;html=1;entryX=0.569;entryY=-0.012;entryDx=0;entryDy=0;entryPerimeter=0;fontColor=#1D3557;labelBackgroundColor=#F1FAEE;strokeColor=#457B9D;sketch=1;curved=1;" parent="1" source="5xwT4UVQatDe8eMr6S1B-32" target="5xwT4UVQatDe8eMr6S1B-5" edge="1">
          <mxGeometry relative="1" as="geometry" />
        </mxCell>
        <mxCell id="5xwT4UVQatDe8eMr6S1B-36" value="Employer" style="swimlane;fontStyle=0;childLayout=stackLayout;horizontal=1;startSize=30;horizontalStack=0;resizeParent=1;resizeParentMax=0;resizeLast=0;collapsible=1;marginBottom=0;labelBorderColor=default;fontColor=#1D3557;labelBackgroundColor=#F1FAEE;fillColor=#A8DADC;strokeColor=#457B9D;rounded=1;sketch=1;" parent="1" vertex="1">
          <mxGeometry x="320" y="580" width="140" height="90" as="geometry" />
        </mxCell>
        <mxCell id="5xwT4UVQatDe8eMr6S1B-38" value="Active/Inactive ?" style="text;strokeColor=none;fillColor=none;align=left;verticalAlign=middle;spacingLeft=4;spacingRight=4;overflow=hidden;points=[[0,0.5],[1,0.5]];portConstraint=eastwest;rotatable=0;labelBorderColor=default;fontColor=#1D3557;rounded=1;sketch=1;" parent="5xwT4UVQatDe8eMr6S1B-36" vertex="1">
          <mxGeometry y="30" width="140" height="30" as="geometry" />
        </mxCell>
        <mxCell id="5xwT4UVQatDe8eMr6S1B-39" value="Invite Sent /Not Sent ?" style="text;strokeColor=none;fillColor=none;align=left;verticalAlign=middle;spacingLeft=4;spacingRight=4;overflow=hidden;points=[[0,0.5],[1,0.5]];portConstraint=eastwest;rotatable=0;labelBorderColor=default;fontColor=#1D3557;rounded=1;sketch=1;" parent="5xwT4UVQatDe8eMr6S1B-36" vertex="1">
          <mxGeometry y="60" width="140" height="30" as="geometry" />
        </mxCell>
        <mxCell id="5xwT4UVQatDe8eMr6S1B-40" value="&lt;h1&gt;&lt;font color=&quot;#000000&quot;&gt;Delete Behavior: Account&lt;/font&gt;&lt;/h1&gt;&lt;div&gt;&lt;ul&gt;&lt;li&gt;&lt;font color=&quot;#000000&quot;&gt;1. Once Account is deleted (Hard Delete)&amp;nbsp; &amp;gt;&amp;gt; Delete Employee &amp;gt;&amp;gt; Delete Person &amp;gt;&amp;gt; Delete Documents &amp;gt;&amp;gt; Delete Workflow associated.&lt;/font&gt;&lt;/li&gt;&lt;li&gt;&lt;font color=&quot;#000000&quot;&gt;2. Once&amp;nbsp; Account is removed (Soft Delete) &amp;gt;&amp;gt; Inactive Employee &amp;gt;&amp;gt; Inactive Person.&amp;nbsp;&lt;/font&gt;&lt;/li&gt;&lt;li&gt;&lt;font color=&quot;#000000&quot;&gt;Who can perform the Delete and remove Behavior ?? QTA&lt;/font&gt;&lt;/li&gt;&lt;/ul&gt;&lt;div&gt;&lt;font color=&quot;#000000&quot; style=&quot;font-size: 22px&quot;&gt;&lt;b&gt;Create Behavior&amp;nbsp;: Employee&lt;/b&gt;&lt;/font&gt;&lt;/div&gt;&lt;ul&gt;&lt;li&gt;&lt;font color=&quot;#000000&quot;&gt;&lt;b style=&quot;font-size: 13px&quot;&gt;1.&amp;nbsp; Only Employer and Legal Can create an employee&lt;/b&gt;&lt;/font&gt;&amp;nbsp;&lt;/li&gt;&lt;/ul&gt;&lt;/div&gt;&lt;div&gt;&amp;nbsp;&lt;/div&gt;&lt;p&gt;&lt;br&gt;&lt;/p&gt;" style="text;html=1;strokeColor=none;fillColor=none;spacing=5;spacingTop=-20;whiteSpace=wrap;overflow=hidden;rounded=1;labelBackgroundColor=#F1FAEE;labelBorderColor=default;fontColor=#1D3557;sketch=1;" parent="1" vertex="1">
          <mxGeometry x="970" y="20" width="1135" height="260" as="geometry" />
        </mxCell>
        <mxCell id="5xwT4UVQatDe8eMr6S1B-44" value="" style="edgeStyle=orthogonalEdgeStyle;rounded=1;orthogonalLoop=1;jettySize=auto;html=1;fontSize=13;fontColor=#1D3557;startArrow=none;labelBackgroundColor=#F1FAEE;strokeColor=#457B9D;sketch=1;curved=1;" parent="1" source="5xwT4UVQatDe8eMr6S1B-46" edge="1">
          <mxGeometry relative="1" as="geometry">
            <mxPoint x="1275" y="375" as="targetPoint" />
          </mxGeometry>
        </mxCell>
        <mxCell id="5xwT4UVQatDe8eMr6S1B-42" value="" style="shape=actor;whiteSpace=wrap;html=1;labelBackgroundColor=#F1FAEE;labelBorderColor=default;fontSize=13;fontColor=#1D3557;fillColor=#A8DADC;strokeColor=#457B9D;rounded=1;sketch=1;" parent="1" vertex="1">
          <mxGeometry x="955" y="345" width="40" height="60" as="geometry" />
        </mxCell>
        <mxCell id="5xwT4UVQatDe8eMr6S1B-45" value="Employer&amp;nbsp;" style="text;html=1;align=center;verticalAlign=middle;resizable=0;points=[];autosize=1;strokeColor=none;fillColor=none;fontSize=27;fontColor=#1D3557;fontStyle=1;rounded=1;sketch=1;" parent="1" vertex="1">
          <mxGeometry x="910" y="420" width="150" height="40" as="geometry" />
        </mxCell>
        <mxCell id="5xwT4UVQatDe8eMr6S1B-46" value="Create Employee" style="text;html=1;align=center;verticalAlign=middle;resizable=0;points=[];autosize=1;strokeColor=none;fillColor=none;fontSize=17;fontColor=#1D3557;rounded=1;sketch=1;" parent="1" vertex="1">
          <mxGeometry x="1020" y="360" width="150" height="30" as="geometry" />
        </mxCell>
        <mxCell id="5xwT4UVQatDe8eMr6S1B-47" value="" style="edgeStyle=orthogonalEdgeStyle;rounded=1;orthogonalLoop=1;jettySize=auto;html=1;fontSize=13;fontColor=#1D3557;endArrow=none;labelBackgroundColor=#F1FAEE;strokeColor=#457B9D;sketch=1;curved=1;" parent="1" source="5xwT4UVQatDe8eMr6S1B-42" target="5xwT4UVQatDe8eMr6S1B-46" edge="1">
          <mxGeometry relative="1" as="geometry">
            <mxPoint x="995" y="375" as="sourcePoint" />
            <mxPoint x="1275" y="375" as="targetPoint" />
          </mxGeometry>
        </mxCell>
        <mxCell id="5xwT4UVQatDe8eMr6S1B-50" value="" style="edgeStyle=orthogonalEdgeStyle;rounded=1;orthogonalLoop=1;jettySize=auto;html=1;fontSize=17;fontColor=#1D3557;startArrow=none;labelBackgroundColor=#F1FAEE;strokeColor=#457B9D;sketch=1;curved=1;" parent="1" source="5xwT4UVQatDe8eMr6S1B-51" target="5xwT4UVQatDe8eMr6S1B-49" edge="1">
          <mxGeometry relative="1" as="geometry" />
        </mxCell>
        <mxCell id="5xwT4UVQatDe8eMr6S1B-54" style="edgeStyle=orthogonalEdgeStyle;rounded=1;orthogonalLoop=1;jettySize=auto;html=1;exitX=0.5;exitY=1;exitDx=0;exitDy=0;fontSize=24;fontColor=#1D3557;startArrow=none;labelBackgroundColor=#F1FAEE;strokeColor=#457B9D;sketch=1;curved=1;" parent="1" source="5xwT4UVQatDe8eMr6S1B-57" edge="1">
          <mxGeometry relative="1" as="geometry">
            <mxPoint x="1344.8571428571431" y="525" as="targetPoint" />
          </mxGeometry>
        </mxCell>
        <mxCell id="5xwT4UVQatDe8eMr6S1B-48" value="Send Invite&amp;nbsp;" style="rhombus;whiteSpace=wrap;html=1;labelBackgroundColor=#F1FAEE;labelBorderColor=default;fontSize=17;fontColor=#1D3557;fillColor=#A8DADC;strokeColor=#457B9D;rounded=1;sketch=1;" parent="1" vertex="1">
          <mxGeometry x="1275" y="325" width="140" height="100" as="geometry" />
        </mxCell>
        <mxCell id="5xwT4UVQatDe8eMr6S1B-49" value="Create Account : YES&lt;br&gt;Create Person: YES &lt;br&gt;Send Invite :Active&lt;br&gt;&lt;br&gt;Account : Active&lt;br&gt;Employee: Active&lt;br&gt;Invite Sent : Active&lt;br&gt;Person : Active" style="whiteSpace=wrap;html=1;fontSize=17;fontColor=#1D3557;labelBackgroundColor=#F1FAEE;labelBorderColor=default;fillColor=#A8DADC;strokeColor=#457B9D;rounded=1;sketch=1;" parent="1" vertex="1">
          <mxGeometry x="1625" y="310" width="360" height="130" as="geometry" />
        </mxCell>
        <mxCell id="5xwT4UVQatDe8eMr6S1B-51" value="Yes" style="text;html=1;align=center;verticalAlign=middle;resizable=0;points=[];autosize=1;strokeColor=none;fillColor=none;fontSize=24;fontColor=#1D3557;fontStyle=1;rounded=1;sketch=1;" parent="1" vertex="1">
          <mxGeometry x="1465" y="360" width="60" height="30" as="geometry" />
        </mxCell>
        <mxCell id="5xwT4UVQatDe8eMr6S1B-52" value="" style="edgeStyle=orthogonalEdgeStyle;rounded=1;orthogonalLoop=1;jettySize=auto;html=1;fontSize=17;fontColor=#1D3557;endArrow=none;labelBackgroundColor=#F1FAEE;strokeColor=#457B9D;sketch=1;curved=1;" parent="1" source="5xwT4UVQatDe8eMr6S1B-48" target="5xwT4UVQatDe8eMr6S1B-51" edge="1">
          <mxGeometry relative="1" as="geometry">
            <mxPoint x="1415" y="375" as="sourcePoint" />
            <mxPoint x="1595" y="375" as="targetPoint" />
          </mxGeometry>
        </mxCell>
        <mxCell id="5xwT4UVQatDe8eMr6S1B-56" value="Create Account : NO&lt;br&gt;Create Person :&amp;nbsp;&lt;br&gt;YES&lt;br&gt;Send Invite : NO&lt;br&gt;" style="whiteSpace=wrap;html=1;fontSize=17;fontColor=#1D3557;labelBackgroundColor=#F1FAEE;labelBorderColor=default;fillColor=#A8DADC;strokeColor=#457B9D;rounded=1;sketch=1;" parent="1" vertex="1">
          <mxGeometry x="1275" y="525" width="150" height="130" as="geometry" />
        </mxCell>
        <mxCell id="5xwT4UVQatDe8eMr6S1B-57" value="NO" style="text;html=1;align=center;verticalAlign=middle;resizable=0;points=[];autosize=1;strokeColor=none;fillColor=none;fontSize=24;fontColor=#1D3557;rounded=1;sketch=1;" parent="1" vertex="1">
          <mxGeometry x="1320" y="465" width="50" height="30" as="geometry" />
        </mxCell>
        <mxCell id="5xwT4UVQatDe8eMr6S1B-58" value="" style="edgeStyle=orthogonalEdgeStyle;rounded=1;orthogonalLoop=1;jettySize=auto;html=1;exitX=0.5;exitY=1;exitDx=0;exitDy=0;fontSize=24;fontColor=#1D3557;endArrow=none;labelBackgroundColor=#F1FAEE;strokeColor=#457B9D;sketch=1;curved=1;" parent="1" source="5xwT4UVQatDe8eMr6S1B-48" target="5xwT4UVQatDe8eMr6S1B-57" edge="1">
          <mxGeometry relative="1" as="geometry">
            <mxPoint x="1344.8571428571431" y="525" as="targetPoint" />
            <mxPoint x="1345" y="425" as="sourcePoint" />
          </mxGeometry>
        </mxCell>
        <mxCell id="5xwT4UVQatDe8eMr6S1B-59" value="&lt;h1&gt;&lt;font color=&quot;#000000&quot;&gt;Delete Behavior: Account&lt;/font&gt;&lt;/h1&gt;&lt;div&gt;&lt;ul&gt;&lt;li&gt;&lt;font color=&quot;#000000&quot;&gt;1. Once Account is deleted (Hard Delete)&amp;nbsp; &amp;gt;&amp;gt; Delete Employer &amp;gt;&amp;gt; Delete Person &amp;gt;&amp;gt; Delete Documents .&lt;/font&gt;&lt;/li&gt;&lt;li&gt;&lt;font color=&quot;#000000&quot;&gt;2. Once&amp;nbsp; Account is removed (Soft Delete) &amp;gt;&amp;gt; Inactive Employer &amp;gt;&amp;gt; Inactive Person.&amp;nbsp;&lt;/font&gt;&lt;/li&gt;&lt;li&gt;&lt;font color=&quot;#000000&quot;&gt;Who can perform the Delete and remove Behavior ?? QTA&lt;/font&gt;&lt;/li&gt;&lt;/ul&gt;&lt;div&gt;&lt;font color=&quot;#000000&quot; style=&quot;font-size: 22px&quot;&gt;&lt;b&gt;Create Behavior&amp;nbsp;: Employer&lt;/b&gt;&lt;/font&gt;&lt;/div&gt;&lt;ul&gt;&lt;li&gt;&lt;font color=&quot;#000000&quot;&gt;&lt;b style=&quot;font-size: 13px&quot;&gt;1.&amp;nbsp; Legal Can create an employer&lt;/b&gt;&lt;/font&gt;&lt;/li&gt;&lt;li&gt;&lt;br&gt;&lt;/li&gt;&lt;/ul&gt;&lt;/div&gt;&lt;div&gt;&amp;nbsp;&lt;/div&gt;&lt;p&gt;&lt;br&gt;&lt;/p&gt;" style="text;html=1;strokeColor=none;fillColor=none;spacing=5;spacingTop=-20;whiteSpace=wrap;overflow=hidden;rounded=1;labelBackgroundColor=#F1FAEE;labelBorderColor=default;fontColor=#1D3557;sketch=1;" parent="1" vertex="1">
          <mxGeometry x="2230" y="20" width="600" height="200" as="geometry" />
        </mxCell>
        <mxCell id="5xwT4UVQatDe8eMr6S1B-61" value="Legal" style="text;html=1;align=center;verticalAlign=middle;resizable=0;points=[];autosize=1;strokeColor=none;fillColor=none;fontSize=31;fontColor=#1D3557;fontStyle=1;rounded=1;sketch=1;" parent="1" vertex="1">
          <mxGeometry x="925" y="805" width="100" height="40" as="geometry" />
        </mxCell>
        <mxCell id="5xwT4UVQatDe8eMr6S1B-63" value="" style="edgeStyle=orthogonalEdgeStyle;rounded=1;orthogonalLoop=1;jettySize=auto;html=1;fontSize=13;fontColor=#1D3557;startArrow=none;labelBackgroundColor=#F1FAEE;strokeColor=#457B9D;sketch=1;curved=1;" parent="1" source="5xwT4UVQatDe8eMr6S1B-66" edge="1">
          <mxGeometry relative="1" as="geometry">
            <mxPoint x="1265" y="770" as="targetPoint" />
          </mxGeometry>
        </mxCell>
        <mxCell id="5xwT4UVQatDe8eMr6S1B-64" value="" style="shape=actor;whiteSpace=wrap;html=1;labelBackgroundColor=#F1FAEE;labelBorderColor=default;fontSize=13;fontColor=#1D3557;fillColor=#A8DADC;strokeColor=#457B9D;rounded=1;sketch=1;" parent="1" vertex="1">
          <mxGeometry x="945" y="740" width="40" height="60" as="geometry" />
        </mxCell>
        <mxCell id="5xwT4UVQatDe8eMr6S1B-66" value="Create Employee" style="text;html=1;align=center;verticalAlign=middle;resizable=0;points=[];autosize=1;strokeColor=none;fillColor=none;fontSize=17;fontColor=#1D3557;rounded=1;sketch=1;" parent="1" vertex="1">
          <mxGeometry x="1010" y="755" width="150" height="30" as="geometry" />
        </mxCell>
        <mxCell id="5xwT4UVQatDe8eMr6S1B-67" value="" style="edgeStyle=orthogonalEdgeStyle;rounded=1;orthogonalLoop=1;jettySize=auto;html=1;fontSize=13;fontColor=#1D3557;endArrow=none;labelBackgroundColor=#F1FAEE;strokeColor=#457B9D;sketch=1;curved=1;" parent="1" source="5xwT4UVQatDe8eMr6S1B-64" target="5xwT4UVQatDe8eMr6S1B-66" edge="1">
          <mxGeometry relative="1" as="geometry">
            <mxPoint x="985" y="770" as="sourcePoint" />
            <mxPoint x="1265" y="770" as="targetPoint" />
          </mxGeometry>
        </mxCell>
        <mxCell id="5xwT4UVQatDe8eMr6S1B-68" value="" style="edgeStyle=orthogonalEdgeStyle;rounded=1;orthogonalLoop=1;jettySize=auto;html=1;fontSize=17;fontColor=#1D3557;startArrow=none;labelBackgroundColor=#F1FAEE;strokeColor=#457B9D;sketch=1;curved=1;" parent="1" source="5xwT4UVQatDe8eMr6S1B-72" target="5xwT4UVQatDe8eMr6S1B-71" edge="1">
          <mxGeometry relative="1" as="geometry" />
        </mxCell>
        <mxCell id="5xwT4UVQatDe8eMr6S1B-69" style="edgeStyle=orthogonalEdgeStyle;rounded=1;orthogonalLoop=1;jettySize=auto;html=1;exitX=0.5;exitY=1;exitDx=0;exitDy=0;fontSize=24;fontColor=#1D3557;startArrow=none;labelBackgroundColor=#F1FAEE;strokeColor=#457B9D;sketch=1;curved=1;" parent="1" source="5xwT4UVQatDe8eMr6S1B-75" edge="1">
          <mxGeometry relative="1" as="geometry">
            <mxPoint x="1334.8571428571431" y="920" as="targetPoint" />
          </mxGeometry>
        </mxCell>
        <mxCell id="5xwT4UVQatDe8eMr6S1B-70" value="Send Invite&amp;nbsp;" style="rhombus;whiteSpace=wrap;html=1;labelBackgroundColor=#F1FAEE;labelBorderColor=default;fontSize=17;fontColor=#1D3557;fillColor=#A8DADC;strokeColor=#457B9D;rounded=1;sketch=1;" parent="1" vertex="1">
          <mxGeometry x="1265" y="720" width="140" height="100" as="geometry" />
        </mxCell>
        <mxCell id="5xwT4UVQatDe8eMr6S1B-71" value="Create Account : YES&lt;br&gt;Create Person: YES &lt;br&gt;Send Invite : &lt;br&gt;YES&lt;br&gt;Account : Active&lt;br&gt;Employee: Active&lt;br&gt;Invite Sent : Active&lt;br&gt;Person : Active" style="whiteSpace=wrap;html=1;fontSize=17;fontColor=#1D3557;labelBackgroundColor=#F1FAEE;labelBorderColor=default;fillColor=#A8DADC;strokeColor=#457B9D;rounded=1;sketch=1;" parent="1" vertex="1">
          <mxGeometry x="1615" y="705" width="360" height="130" as="geometry" />
        </mxCell>
        <mxCell id="5xwT4UVQatDe8eMr6S1B-72" value="Yes" style="text;html=1;align=center;verticalAlign=middle;resizable=0;points=[];autosize=1;strokeColor=none;fillColor=none;fontSize=24;fontColor=#1D3557;fontStyle=1;rounded=1;sketch=1;" parent="1" vertex="1">
          <mxGeometry x="1455" y="755" width="60" height="30" as="geometry" />
        </mxCell>
        <mxCell id="5xwT4UVQatDe8eMr6S1B-73" value="" style="edgeStyle=orthogonalEdgeStyle;rounded=1;orthogonalLoop=1;jettySize=auto;html=1;fontSize=17;fontColor=#1D3557;endArrow=none;labelBackgroundColor=#F1FAEE;strokeColor=#457B9D;sketch=1;curved=1;" parent="1" source="5xwT4UVQatDe8eMr6S1B-70" target="5xwT4UVQatDe8eMr6S1B-72" edge="1">
          <mxGeometry relative="1" as="geometry">
            <mxPoint x="1405" y="770" as="sourcePoint" />
            <mxPoint x="1585" y="770" as="targetPoint" />
          </mxGeometry>
        </mxCell>
        <mxCell id="5xwT4UVQatDe8eMr6S1B-74" value="Create Account : NO&lt;br&gt;Create Person :&amp;nbsp;&lt;br&gt;YES&lt;br&gt;Send Invite : NO&lt;br&gt;Enable :&amp;nbsp; DYI Bool" style="whiteSpace=wrap;html=1;fontSize=17;fontColor=#1D3557;labelBackgroundColor=#F1FAEE;labelBorderColor=default;fillColor=#A8DADC;strokeColor=#457B9D;rounded=1;sketch=1;" parent="1" vertex="1">
          <mxGeometry x="1230" y="920" width="235" height="135" as="geometry" />
        </mxCell>
        <mxCell id="5xwT4UVQatDe8eMr6S1B-75" value="NO" style="text;html=1;align=center;verticalAlign=middle;resizable=0;points=[];autosize=1;strokeColor=none;fillColor=none;fontSize=24;fontColor=#1D3557;rounded=1;sketch=1;" parent="1" vertex="1">
          <mxGeometry x="1310" y="860" width="50" height="30" as="geometry" />
        </mxCell>
        <mxCell id="5xwT4UVQatDe8eMr6S1B-76" value="" style="edgeStyle=orthogonalEdgeStyle;rounded=1;orthogonalLoop=1;jettySize=auto;html=1;exitX=0.5;exitY=1;exitDx=0;exitDy=0;fontSize=24;fontColor=#1D3557;endArrow=none;labelBackgroundColor=#F1FAEE;strokeColor=#457B9D;sketch=1;curved=1;" parent="1" source="5xwT4UVQatDe8eMr6S1B-70" target="5xwT4UVQatDe8eMr6S1B-75" edge="1">
          <mxGeometry relative="1" as="geometry">
            <mxPoint x="1334.8571428571431" y="920" as="targetPoint" />
            <mxPoint x="1335" y="820" as="sourcePoint" />
          </mxGeometry>
        </mxCell>
        <mxCell id="5xwT4UVQatDe8eMr6S1B-80" value="" style="edgeStyle=orthogonalEdgeStyle;rounded=1;orthogonalLoop=1;jettySize=auto;html=1;fontSize=13;fontColor=#1D3557;startArrow=none;labelBackgroundColor=#F1FAEE;strokeColor=#457B9D;sketch=1;curved=1;" parent="1" source="5xwT4UVQatDe8eMr6S1B-82" edge="1">
          <mxGeometry relative="1" as="geometry">
            <mxPoint x="2550" y="355" as="targetPoint" />
          </mxGeometry>
        </mxCell>
        <mxCell id="5xwT4UVQatDe8eMr6S1B-81" value="" style="shape=actor;whiteSpace=wrap;html=1;labelBackgroundColor=#F1FAEE;labelBorderColor=default;fontSize=13;fontColor=#1D3557;fillColor=#A8DADC;strokeColor=#457B9D;rounded=1;sketch=1;" parent="1" vertex="1">
          <mxGeometry x="2230" y="325" width="40" height="60" as="geometry" />
        </mxCell>
        <mxCell id="5xwT4UVQatDe8eMr6S1B-82" value="Create Employer" style="text;html=1;align=center;verticalAlign=middle;resizable=0;points=[];autosize=1;strokeColor=none;fillColor=none;fontSize=17;fontColor=#1D3557;rounded=1;sketch=1;" parent="1" vertex="1">
          <mxGeometry x="2300" y="340" width="140" height="30" as="geometry" />
        </mxCell>
        <mxCell id="5xwT4UVQatDe8eMr6S1B-83" value="" style="edgeStyle=orthogonalEdgeStyle;rounded=1;orthogonalLoop=1;jettySize=auto;html=1;fontSize=13;fontColor=#1D3557;endArrow=none;labelBackgroundColor=#F1FAEE;strokeColor=#457B9D;sketch=1;curved=1;" parent="1" source="5xwT4UVQatDe8eMr6S1B-81" target="5xwT4UVQatDe8eMr6S1B-82" edge="1">
          <mxGeometry relative="1" as="geometry">
            <mxPoint x="2270" y="355" as="sourcePoint" />
            <mxPoint x="2550" y="355" as="targetPoint" />
          </mxGeometry>
        </mxCell>
        <mxCell id="5xwT4UVQatDe8eMr6S1B-87" value="Create Account : YES&lt;br&gt;Create Person: YES &lt;br&gt;Send Invite : &lt;br&gt;YES&lt;br&gt;Account : Active&lt;br&gt;Employer : Active&lt;br&gt;InviteSent : Active" style="whiteSpace=wrap;html=1;fontSize=17;fontColor=#1D3557;labelBackgroundColor=#F1FAEE;labelBorderColor=default;fillColor=#A8DADC;strokeColor=#457B9D;rounded=1;sketch=1;" parent="1" vertex="1">
          <mxGeometry x="2640" y="290" width="360" height="130" as="geometry" />
        </mxCell>
        <mxCell id="5xwT4UVQatDe8eMr6S1B-93" value="LEGAL" style="text;html=1;align=center;verticalAlign=middle;resizable=0;points=[];autosize=1;strokeColor=none;fillColor=none;fontSize=27;fontColor=#1D3557;fontStyle=1;rounded=1;sketch=1;" parent="1" vertex="1">
          <mxGeometry x="2185" y="400" width="110" height="40" as="geometry" />
        </mxCell>
        <mxCell id="5xwT4UVQatDe8eMr6S1B-94" value="Send Invite" style="triangle;whiteSpace=wrap;html=1;labelBackgroundColor=#F1FAEE;labelBorderColor=default;fontSize=27;fontColor=#1D3557;fillColor=#A8DADC;strokeColor=#457B9D;rounded=1;sketch=1;" parent="1" vertex="1">
          <mxGeometry x="2550" y="280" width="130" height="150" as="geometry" />
        </mxCell>
      </root>
    </mxGraphModel>
  </diagram>
</mxfile>
